<svg xmlns="http://www.w3.org/2000/svg" viewBox="0 0 368 368"><path d="M364.8 145.6l-64-48A7.995 7.995 0 0 0 296 96H72c-1.728 0-3.416.56-4.8 1.6l-64 48A8.006 8.006 0 0 0 0 152v80c0 3.032 1.712 5.8 4.424 7.16a8.009 8.009 0 0 0 8.376-.76L64 200v56c0 8.824 7.176 16 16 16h32c8.824 0 16-7.176 16-16v-64h112v64c0 8.824 7.176 16 16 16h32c8.824 0 16-7.176 16-16v-56l51.2 38.4a7.977 7.977 0 0 0 4.8 1.6c1.216 0 2.448-.28 3.576-.84A8.009 8.009 0 0 0 368 232v-80a8.006 8.006 0 0 0-3.2-6.4zM112 256H80v-64h32v64zm176 0h-32v-64h32v64zm64-40l-51.2-38.4c-.336-.248-.728-.376-1.088-.568-.296-.16-.56-.336-.872-.456-.912-.352-1.856-.576-2.84-.576H72c-.984 0-1.928.224-2.832.568-.312.12-.584.304-.872.456-.36.192-.76.32-1.088.568L16 216v-60l58.664-44h218.664L352 156v60z"/></svg>
